<mxfile host="Electron" agent="Mozilla/5.0 (Windows NT 10.0; Win64; x64) AppleWebKit/537.36 (KHTML, like Gecko) draw.io/24.7.8 Chrome/128.0.6613.36 Electron/32.0.1 Safari/537.36" version="24.7.8">
  <diagram name="第 1 页" id="BJOVSuVu_fWGIJ6BTaYK">
    <mxGraphModel dx="1936" dy="1718" grid="1" gridSize="10" guides="1" tooltips="1" connect="1" arrows="1" fold="1" page="1" pageScale="1" pageWidth="10000" pageHeight="10000" math="0" shadow="0">
      <root>
        <mxCell id="0" />
        <mxCell id="1" parent="0" />
        <mxCell id="hVugAy7qZTGiJPYE8WCz-1" value="&lt;font color=&quot;#000000&quot; style=&quot;font-size: 24px;&quot;&gt;输入数据&lt;/font&gt;&lt;div style=&quot;font-size: 24px;&quot;&gt;&lt;font color=&quot;#000000&quot; style=&quot;font-size: 24px;&quot;&gt;选择器&lt;/font&gt;&lt;/div&gt;&lt;div style=&quot;font-size: 24px;&quot;&gt;&lt;font color=&quot;#000000&quot; style=&quot;font-size: 24px;&quot;&gt;&lt;br&gt;&lt;/font&gt;&lt;/div&gt;&lt;div style=&quot;font-size: 24px;&quot;&gt;&lt;font color=&quot;#000000&quot; style=&quot;font-size: 24px;&quot;&gt;2选1&lt;/font&gt;&lt;/div&gt;" style="rounded=0;whiteSpace=wrap;html=1;fillColor=#dae8fc;strokeColor=#6c8ebf;" parent="1" vertex="1">
          <mxGeometry x="270" y="670" width="160" height="250" as="geometry" />
        </mxCell>
        <mxCell id="hVugAy7qZTGiJPYE8WCz-2" value="" style="shape=flexArrow;endArrow=classic;html=1;rounded=0;fillColor=#d5e8d4;strokeColor=#82b366;width=21;" parent="1" edge="1">
          <mxGeometry width="50" height="50" relative="1" as="geometry">
            <mxPoint x="470" y="730" as="sourcePoint" />
            <mxPoint x="570" y="730" as="targetPoint" />
          </mxGeometry>
        </mxCell>
        <mxCell id="hVugAy7qZTGiJPYE8WCz-3" value="" style="shape=flexArrow;endArrow=classic;html=1;rounded=0;fillColor=#fff2cc;strokeColor=#d6b656;width=20;" parent="1" edge="1">
          <mxGeometry width="50" height="50" relative="1" as="geometry">
            <mxPoint x="470" y="850" as="sourcePoint" />
            <mxPoint x="570" y="850" as="targetPoint" />
          </mxGeometry>
        </mxCell>
        <mxCell id="hVugAy7qZTGiJPYE8WCz-5" value="&lt;font style=&quot;font-size: 20px;&quot;&gt;数据缓存RAM1&lt;/font&gt;" style="rounded=1;whiteSpace=wrap;html=1;" parent="1" vertex="1">
          <mxGeometry x="600" y="690" width="150" height="80" as="geometry" />
        </mxCell>
        <mxCell id="hVugAy7qZTGiJPYE8WCz-6" value="&lt;font style=&quot;font-size: 20px;&quot;&gt;数据缓存RAM2&lt;/font&gt;" style="rounded=1;whiteSpace=wrap;html=1;" parent="1" vertex="1">
          <mxGeometry x="600" y="810" width="150" height="80" as="geometry" />
        </mxCell>
        <mxCell id="hVugAy7qZTGiJPYE8WCz-7" value="&lt;font color=&quot;#000000&quot; style=&quot;font-size: 24px;&quot;&gt;输出数据&lt;/font&gt;&lt;div style=&quot;font-size: 24px;&quot;&gt;&lt;font color=&quot;#000000&quot; style=&quot;font-size: 24px;&quot;&gt;选择器&lt;/font&gt;&lt;/div&gt;&lt;div style=&quot;font-size: 24px;&quot;&gt;&lt;font color=&quot;#000000&quot; style=&quot;font-size: 24px;&quot;&gt;&lt;br&gt;&lt;/font&gt;&lt;/div&gt;&lt;div style=&quot;font-size: 24px;&quot;&gt;&lt;font color=&quot;#000000&quot; style=&quot;font-size: 24px;&quot;&gt;2选1&lt;/font&gt;&lt;/div&gt;" style="rounded=0;whiteSpace=wrap;html=1;fillColor=#dae8fc;strokeColor=#6c8ebf;" parent="1" vertex="1">
          <mxGeometry x="900" y="670" width="160" height="250" as="geometry" />
        </mxCell>
        <mxCell id="hVugAy7qZTGiJPYE8WCz-8" value="" style="shape=flexArrow;endArrow=classic;html=1;rounded=0;fillColor=#fff2cc;strokeColor=#d6b656;width=20;" parent="1" edge="1">
          <mxGeometry width="50" height="50" relative="1" as="geometry">
            <mxPoint x="770" y="734.5" as="sourcePoint" />
            <mxPoint x="870" y="734.5" as="targetPoint" />
          </mxGeometry>
        </mxCell>
        <mxCell id="hVugAy7qZTGiJPYE8WCz-9" value="" style="shape=flexArrow;endArrow=classic;html=1;rounded=0;fillColor=#d5e8d4;strokeColor=#82b366;width=20;" parent="1" edge="1">
          <mxGeometry width="50" height="50" relative="1" as="geometry">
            <mxPoint x="770" y="854.5" as="sourcePoint" />
            <mxPoint x="870" y="854.5" as="targetPoint" />
          </mxGeometry>
        </mxCell>
        <mxCell id="hVugAy7qZTGiJPYE8WCz-10" value="&lt;font style=&quot;font-size: 24px;&quot;&gt;1&lt;/font&gt;" style="ellipse;whiteSpace=wrap;html=1;aspect=fixed;" parent="1" vertex="1">
          <mxGeometry x="170" y="225" width="50" height="50" as="geometry" />
        </mxCell>
        <mxCell id="hVugAy7qZTGiJPYE8WCz-11" value="&lt;font style=&quot;font-size: 24px;&quot;&gt;2&lt;/font&gt;" style="ellipse;whiteSpace=wrap;html=1;aspect=fixed;" parent="1" vertex="1">
          <mxGeometry x="170" y="365" width="50" height="50" as="geometry" />
        </mxCell>
        <mxCell id="hVugAy7qZTGiJPYE8WCz-12" value="&lt;font style=&quot;font-size: 24px;&quot;&gt;3&lt;/font&gt;" style="ellipse;whiteSpace=wrap;html=1;aspect=fixed;" parent="1" vertex="1">
          <mxGeometry x="170" y="505" width="50" height="50" as="geometry" />
        </mxCell>
        <mxCell id="hVugAy7qZTGiJPYE8WCz-13" value="&lt;font style=&quot;font-size: 27px;&quot;&gt;第一个缓冲周期，输入数据流写入数据缓冲模块1，写完进入第二个缓冲周期&lt;/font&gt;" style="text;html=1;align=center;verticalAlign=middle;resizable=0;points=[];autosize=1;strokeColor=none;fillColor=none;" parent="1" vertex="1">
          <mxGeometry x="270" y="225" width="930" height="50" as="geometry" />
        </mxCell>
        <mxCell id="hVugAy7qZTGiJPYE8WCz-14" value="&lt;font style=&quot;font-size: 27px;&quot;&gt;第二个缓冲周期，输入数据流写入数据缓冲模块2，同时将数据缓冲模块1读出&lt;/font&gt;" style="text;html=1;align=center;verticalAlign=middle;resizable=0;points=[];autosize=1;strokeColor=none;fillColor=none;" parent="1" vertex="1">
          <mxGeometry x="270" y="365" width="940" height="50" as="geometry" />
        </mxCell>
        <mxCell id="hVugAy7qZTGiJPYE8WCz-15" value="&lt;font style=&quot;font-size: 27px;&quot;&gt;第三个缓冲周期，输入数据流写入数据缓冲模块1，同时将数据缓冲模块2读出&lt;/font&gt;" style="text;html=1;align=center;verticalAlign=middle;resizable=0;points=[];autosize=1;strokeColor=none;fillColor=none;" parent="1" vertex="1">
          <mxGeometry x="270" y="505" width="940" height="50" as="geometry" />
        </mxCell>
        <mxCell id="VB9HZBtO5DFLmSZE46sQ-1" value="" style="shape=table;startSize=0;container=1;collapsible=0;childLayout=tableLayout;fontSize=16;fillColor=none;" vertex="1" parent="1">
          <mxGeometry x="620" y="1350" width="390" height="390" as="geometry" />
        </mxCell>
        <mxCell id="VB9HZBtO5DFLmSZE46sQ-2" value="" style="shape=tableRow;horizontal=0;startSize=0;swimlaneHead=0;swimlaneBody=0;strokeColor=inherit;top=0;left=0;bottom=0;right=0;collapsible=0;dropTarget=0;fillColor=none;points=[[0,0.5],[1,0.5]];portConstraint=eastwest;fontSize=16;" vertex="1" parent="VB9HZBtO5DFLmSZE46sQ-1">
          <mxGeometry width="390" height="130" as="geometry" />
        </mxCell>
        <mxCell id="VB9HZBtO5DFLmSZE46sQ-3" value="" style="shape=partialRectangle;html=1;whiteSpace=wrap;connectable=0;strokeColor=inherit;overflow=hidden;fillColor=none;top=0;left=0;bottom=0;right=0;pointerEvents=1;fontSize=16;" vertex="1" parent="VB9HZBtO5DFLmSZE46sQ-2">
          <mxGeometry width="130" height="130" as="geometry">
            <mxRectangle width="130" height="130" as="alternateBounds" />
          </mxGeometry>
        </mxCell>
        <mxCell id="VB9HZBtO5DFLmSZE46sQ-4" value="" style="shape=partialRectangle;html=1;whiteSpace=wrap;connectable=0;strokeColor=inherit;overflow=hidden;fillColor=none;top=0;left=0;bottom=0;right=0;pointerEvents=1;fontSize=16;" vertex="1" parent="VB9HZBtO5DFLmSZE46sQ-2">
          <mxGeometry x="130" width="130" height="130" as="geometry">
            <mxRectangle width="130" height="130" as="alternateBounds" />
          </mxGeometry>
        </mxCell>
        <mxCell id="VB9HZBtO5DFLmSZE46sQ-5" value="" style="shape=partialRectangle;html=1;whiteSpace=wrap;connectable=0;strokeColor=inherit;overflow=hidden;fillColor=none;top=0;left=0;bottom=0;right=0;pointerEvents=1;fontSize=16;" vertex="1" parent="VB9HZBtO5DFLmSZE46sQ-2">
          <mxGeometry x="260" width="130" height="130" as="geometry">
            <mxRectangle width="130" height="130" as="alternateBounds" />
          </mxGeometry>
        </mxCell>
        <mxCell id="VB9HZBtO5DFLmSZE46sQ-6" value="" style="shape=tableRow;horizontal=0;startSize=0;swimlaneHead=0;swimlaneBody=0;strokeColor=inherit;top=0;left=0;bottom=0;right=0;collapsible=0;dropTarget=0;fillColor=none;points=[[0,0.5],[1,0.5]];portConstraint=eastwest;fontSize=16;" vertex="1" parent="VB9HZBtO5DFLmSZE46sQ-1">
          <mxGeometry y="130" width="390" height="130" as="geometry" />
        </mxCell>
        <mxCell id="VB9HZBtO5DFLmSZE46sQ-7" value="" style="shape=partialRectangle;html=1;whiteSpace=wrap;connectable=0;strokeColor=inherit;overflow=hidden;fillColor=none;top=0;left=0;bottom=0;right=0;pointerEvents=1;fontSize=16;" vertex="1" parent="VB9HZBtO5DFLmSZE46sQ-6">
          <mxGeometry width="130" height="130" as="geometry">
            <mxRectangle width="130" height="130" as="alternateBounds" />
          </mxGeometry>
        </mxCell>
        <mxCell id="VB9HZBtO5DFLmSZE46sQ-8" value="" style="shape=partialRectangle;html=1;whiteSpace=wrap;connectable=0;strokeColor=inherit;overflow=hidden;fillColor=none;top=0;left=0;bottom=0;right=0;pointerEvents=1;fontSize=16;" vertex="1" parent="VB9HZBtO5DFLmSZE46sQ-6">
          <mxGeometry x="130" width="130" height="130" as="geometry">
            <mxRectangle width="130" height="130" as="alternateBounds" />
          </mxGeometry>
        </mxCell>
        <mxCell id="VB9HZBtO5DFLmSZE46sQ-9" value="" style="shape=partialRectangle;html=1;whiteSpace=wrap;connectable=0;strokeColor=inherit;overflow=hidden;fillColor=none;top=0;left=0;bottom=0;right=0;pointerEvents=1;fontSize=16;" vertex="1" parent="VB9HZBtO5DFLmSZE46sQ-6">
          <mxGeometry x="260" width="130" height="130" as="geometry">
            <mxRectangle width="130" height="130" as="alternateBounds" />
          </mxGeometry>
        </mxCell>
        <mxCell id="VB9HZBtO5DFLmSZE46sQ-10" value="" style="shape=tableRow;horizontal=0;startSize=0;swimlaneHead=0;swimlaneBody=0;strokeColor=inherit;top=0;left=0;bottom=0;right=0;collapsible=0;dropTarget=0;fillColor=none;points=[[0,0.5],[1,0.5]];portConstraint=eastwest;fontSize=16;" vertex="1" parent="VB9HZBtO5DFLmSZE46sQ-1">
          <mxGeometry y="260" width="390" height="130" as="geometry" />
        </mxCell>
        <mxCell id="VB9HZBtO5DFLmSZE46sQ-11" value="" style="shape=partialRectangle;html=1;whiteSpace=wrap;connectable=0;strokeColor=inherit;overflow=hidden;fillColor=none;top=0;left=0;bottom=0;right=0;pointerEvents=1;fontSize=16;" vertex="1" parent="VB9HZBtO5DFLmSZE46sQ-10">
          <mxGeometry width="130" height="130" as="geometry">
            <mxRectangle width="130" height="130" as="alternateBounds" />
          </mxGeometry>
        </mxCell>
        <mxCell id="VB9HZBtO5DFLmSZE46sQ-12" value="" style="shape=partialRectangle;html=1;whiteSpace=wrap;connectable=0;strokeColor=inherit;overflow=hidden;fillColor=none;top=0;left=0;bottom=0;right=0;pointerEvents=1;fontSize=16;" vertex="1" parent="VB9HZBtO5DFLmSZE46sQ-10">
          <mxGeometry x="130" width="130" height="130" as="geometry">
            <mxRectangle width="130" height="130" as="alternateBounds" />
          </mxGeometry>
        </mxCell>
        <mxCell id="VB9HZBtO5DFLmSZE46sQ-13" value="" style="shape=partialRectangle;html=1;whiteSpace=wrap;connectable=0;strokeColor=inherit;overflow=hidden;fillColor=none;top=0;left=0;bottom=0;right=0;pointerEvents=1;fontSize=16;" vertex="1" parent="VB9HZBtO5DFLmSZE46sQ-10">
          <mxGeometry x="260" width="130" height="130" as="geometry">
            <mxRectangle width="130" height="130" as="alternateBounds" />
          </mxGeometry>
        </mxCell>
        <mxCell id="VB9HZBtO5DFLmSZE46sQ-14" value="" style="shape=table;startSize=0;container=1;collapsible=0;childLayout=tableLayout;fontSize=16;fillColor=none;" vertex="1" parent="1">
          <mxGeometry x="1010" y="1350" width="390" height="390" as="geometry" />
        </mxCell>
        <mxCell id="VB9HZBtO5DFLmSZE46sQ-15" value="" style="shape=tableRow;horizontal=0;startSize=0;swimlaneHead=0;swimlaneBody=0;strokeColor=inherit;top=0;left=0;bottom=0;right=0;collapsible=0;dropTarget=0;fillColor=none;points=[[0,0.5],[1,0.5]];portConstraint=eastwest;fontSize=16;" vertex="1" parent="VB9HZBtO5DFLmSZE46sQ-14">
          <mxGeometry width="390" height="130" as="geometry" />
        </mxCell>
        <mxCell id="VB9HZBtO5DFLmSZE46sQ-16" value="" style="shape=partialRectangle;html=1;whiteSpace=wrap;connectable=0;strokeColor=inherit;overflow=hidden;fillColor=none;top=0;left=0;bottom=0;right=0;pointerEvents=1;fontSize=16;" vertex="1" parent="VB9HZBtO5DFLmSZE46sQ-15">
          <mxGeometry width="130" height="130" as="geometry">
            <mxRectangle width="130" height="130" as="alternateBounds" />
          </mxGeometry>
        </mxCell>
        <mxCell id="VB9HZBtO5DFLmSZE46sQ-17" value="" style="shape=partialRectangle;html=1;whiteSpace=wrap;connectable=0;strokeColor=inherit;overflow=hidden;fillColor=none;top=0;left=0;bottom=0;right=0;pointerEvents=1;fontSize=16;" vertex="1" parent="VB9HZBtO5DFLmSZE46sQ-15">
          <mxGeometry x="130" width="130" height="130" as="geometry">
            <mxRectangle width="130" height="130" as="alternateBounds" />
          </mxGeometry>
        </mxCell>
        <mxCell id="VB9HZBtO5DFLmSZE46sQ-18" value="" style="shape=partialRectangle;html=1;whiteSpace=wrap;connectable=0;strokeColor=inherit;overflow=hidden;fillColor=none;top=0;left=0;bottom=0;right=0;pointerEvents=1;fontSize=16;" vertex="1" parent="VB9HZBtO5DFLmSZE46sQ-15">
          <mxGeometry x="260" width="130" height="130" as="geometry">
            <mxRectangle width="130" height="130" as="alternateBounds" />
          </mxGeometry>
        </mxCell>
        <mxCell id="VB9HZBtO5DFLmSZE46sQ-19" value="" style="shape=tableRow;horizontal=0;startSize=0;swimlaneHead=0;swimlaneBody=0;strokeColor=inherit;top=0;left=0;bottom=0;right=0;collapsible=0;dropTarget=0;fillColor=none;points=[[0,0.5],[1,0.5]];portConstraint=eastwest;fontSize=16;" vertex="1" parent="VB9HZBtO5DFLmSZE46sQ-14">
          <mxGeometry y="130" width="390" height="130" as="geometry" />
        </mxCell>
        <mxCell id="VB9HZBtO5DFLmSZE46sQ-20" value="" style="shape=partialRectangle;html=1;whiteSpace=wrap;connectable=0;strokeColor=inherit;overflow=hidden;fillColor=none;top=0;left=0;bottom=0;right=0;pointerEvents=1;fontSize=16;" vertex="1" parent="VB9HZBtO5DFLmSZE46sQ-19">
          <mxGeometry width="130" height="130" as="geometry">
            <mxRectangle width="130" height="130" as="alternateBounds" />
          </mxGeometry>
        </mxCell>
        <mxCell id="VB9HZBtO5DFLmSZE46sQ-21" value="" style="shape=partialRectangle;html=1;whiteSpace=wrap;connectable=0;strokeColor=inherit;overflow=hidden;fillColor=none;top=0;left=0;bottom=0;right=0;pointerEvents=1;fontSize=16;" vertex="1" parent="VB9HZBtO5DFLmSZE46sQ-19">
          <mxGeometry x="130" width="130" height="130" as="geometry">
            <mxRectangle width="130" height="130" as="alternateBounds" />
          </mxGeometry>
        </mxCell>
        <mxCell id="VB9HZBtO5DFLmSZE46sQ-22" value="" style="shape=partialRectangle;html=1;whiteSpace=wrap;connectable=0;strokeColor=inherit;overflow=hidden;fillColor=none;top=0;left=0;bottom=0;right=0;pointerEvents=1;fontSize=16;" vertex="1" parent="VB9HZBtO5DFLmSZE46sQ-19">
          <mxGeometry x="260" width="130" height="130" as="geometry">
            <mxRectangle width="130" height="130" as="alternateBounds" />
          </mxGeometry>
        </mxCell>
        <mxCell id="VB9HZBtO5DFLmSZE46sQ-23" value="" style="shape=tableRow;horizontal=0;startSize=0;swimlaneHead=0;swimlaneBody=0;strokeColor=inherit;top=0;left=0;bottom=0;right=0;collapsible=0;dropTarget=0;fillColor=none;points=[[0,0.5],[1,0.5]];portConstraint=eastwest;fontSize=16;" vertex="1" parent="VB9HZBtO5DFLmSZE46sQ-14">
          <mxGeometry y="260" width="390" height="130" as="geometry" />
        </mxCell>
        <mxCell id="VB9HZBtO5DFLmSZE46sQ-24" value="" style="shape=partialRectangle;html=1;whiteSpace=wrap;connectable=0;strokeColor=inherit;overflow=hidden;fillColor=none;top=0;left=0;bottom=0;right=0;pointerEvents=1;fontSize=16;" vertex="1" parent="VB9HZBtO5DFLmSZE46sQ-23">
          <mxGeometry width="130" height="130" as="geometry">
            <mxRectangle width="130" height="130" as="alternateBounds" />
          </mxGeometry>
        </mxCell>
        <mxCell id="VB9HZBtO5DFLmSZE46sQ-25" value="" style="shape=partialRectangle;html=1;whiteSpace=wrap;connectable=0;strokeColor=inherit;overflow=hidden;fillColor=none;top=0;left=0;bottom=0;right=0;pointerEvents=1;fontSize=16;" vertex="1" parent="VB9HZBtO5DFLmSZE46sQ-23">
          <mxGeometry x="130" width="130" height="130" as="geometry">
            <mxRectangle width="130" height="130" as="alternateBounds" />
          </mxGeometry>
        </mxCell>
        <mxCell id="VB9HZBtO5DFLmSZE46sQ-26" value="" style="shape=partialRectangle;html=1;whiteSpace=wrap;connectable=0;strokeColor=inherit;overflow=hidden;fillColor=none;top=0;left=0;bottom=0;right=0;pointerEvents=1;fontSize=16;" vertex="1" parent="VB9HZBtO5DFLmSZE46sQ-23">
          <mxGeometry x="260" width="130" height="130" as="geometry">
            <mxRectangle width="130" height="130" as="alternateBounds" />
          </mxGeometry>
        </mxCell>
        <mxCell id="VB9HZBtO5DFLmSZE46sQ-27" value="" style="shape=table;startSize=0;container=1;collapsible=0;childLayout=tableLayout;fontSize=16;fillColor=none;" vertex="1" parent="1">
          <mxGeometry x="620" y="1740" width="390" height="390" as="geometry" />
        </mxCell>
        <mxCell id="VB9HZBtO5DFLmSZE46sQ-28" value="" style="shape=tableRow;horizontal=0;startSize=0;swimlaneHead=0;swimlaneBody=0;strokeColor=inherit;top=0;left=0;bottom=0;right=0;collapsible=0;dropTarget=0;fillColor=none;points=[[0,0.5],[1,0.5]];portConstraint=eastwest;fontSize=16;" vertex="1" parent="VB9HZBtO5DFLmSZE46sQ-27">
          <mxGeometry width="390" height="130" as="geometry" />
        </mxCell>
        <mxCell id="VB9HZBtO5DFLmSZE46sQ-29" value="" style="shape=partialRectangle;html=1;whiteSpace=wrap;connectable=0;strokeColor=inherit;overflow=hidden;fillColor=none;top=0;left=0;bottom=0;right=0;pointerEvents=1;fontSize=16;" vertex="1" parent="VB9HZBtO5DFLmSZE46sQ-28">
          <mxGeometry width="130" height="130" as="geometry">
            <mxRectangle width="130" height="130" as="alternateBounds" />
          </mxGeometry>
        </mxCell>
        <mxCell id="VB9HZBtO5DFLmSZE46sQ-30" value="" style="shape=partialRectangle;html=1;whiteSpace=wrap;connectable=0;strokeColor=inherit;overflow=hidden;fillColor=none;top=0;left=0;bottom=0;right=0;pointerEvents=1;fontSize=16;" vertex="1" parent="VB9HZBtO5DFLmSZE46sQ-28">
          <mxGeometry x="130" width="130" height="130" as="geometry">
            <mxRectangle width="130" height="130" as="alternateBounds" />
          </mxGeometry>
        </mxCell>
        <mxCell id="VB9HZBtO5DFLmSZE46sQ-31" value="" style="shape=partialRectangle;html=1;whiteSpace=wrap;connectable=0;strokeColor=inherit;overflow=hidden;fillColor=none;top=0;left=0;bottom=0;right=0;pointerEvents=1;fontSize=16;" vertex="1" parent="VB9HZBtO5DFLmSZE46sQ-28">
          <mxGeometry x="260" width="130" height="130" as="geometry">
            <mxRectangle width="130" height="130" as="alternateBounds" />
          </mxGeometry>
        </mxCell>
        <mxCell id="VB9HZBtO5DFLmSZE46sQ-32" value="" style="shape=tableRow;horizontal=0;startSize=0;swimlaneHead=0;swimlaneBody=0;strokeColor=inherit;top=0;left=0;bottom=0;right=0;collapsible=0;dropTarget=0;fillColor=none;points=[[0,0.5],[1,0.5]];portConstraint=eastwest;fontSize=16;" vertex="1" parent="VB9HZBtO5DFLmSZE46sQ-27">
          <mxGeometry y="130" width="390" height="130" as="geometry" />
        </mxCell>
        <mxCell id="VB9HZBtO5DFLmSZE46sQ-33" value="" style="shape=partialRectangle;html=1;whiteSpace=wrap;connectable=0;strokeColor=inherit;overflow=hidden;fillColor=none;top=0;left=0;bottom=0;right=0;pointerEvents=1;fontSize=16;" vertex="1" parent="VB9HZBtO5DFLmSZE46sQ-32">
          <mxGeometry width="130" height="130" as="geometry">
            <mxRectangle width="130" height="130" as="alternateBounds" />
          </mxGeometry>
        </mxCell>
        <mxCell id="VB9HZBtO5DFLmSZE46sQ-34" value="" style="shape=partialRectangle;html=1;whiteSpace=wrap;connectable=0;strokeColor=inherit;overflow=hidden;fillColor=none;top=0;left=0;bottom=0;right=0;pointerEvents=1;fontSize=16;" vertex="1" parent="VB9HZBtO5DFLmSZE46sQ-32">
          <mxGeometry x="130" width="130" height="130" as="geometry">
            <mxRectangle width="130" height="130" as="alternateBounds" />
          </mxGeometry>
        </mxCell>
        <mxCell id="VB9HZBtO5DFLmSZE46sQ-35" value="" style="shape=partialRectangle;html=1;whiteSpace=wrap;connectable=0;strokeColor=inherit;overflow=hidden;fillColor=none;top=0;left=0;bottom=0;right=0;pointerEvents=1;fontSize=16;" vertex="1" parent="VB9HZBtO5DFLmSZE46sQ-32">
          <mxGeometry x="260" width="130" height="130" as="geometry">
            <mxRectangle width="130" height="130" as="alternateBounds" />
          </mxGeometry>
        </mxCell>
        <mxCell id="VB9HZBtO5DFLmSZE46sQ-36" value="" style="shape=tableRow;horizontal=0;startSize=0;swimlaneHead=0;swimlaneBody=0;strokeColor=inherit;top=0;left=0;bottom=0;right=0;collapsible=0;dropTarget=0;fillColor=none;points=[[0,0.5],[1,0.5]];portConstraint=eastwest;fontSize=16;" vertex="1" parent="VB9HZBtO5DFLmSZE46sQ-27">
          <mxGeometry y="260" width="390" height="130" as="geometry" />
        </mxCell>
        <mxCell id="VB9HZBtO5DFLmSZE46sQ-37" value="" style="shape=partialRectangle;html=1;whiteSpace=wrap;connectable=0;strokeColor=inherit;overflow=hidden;fillColor=none;top=0;left=0;bottom=0;right=0;pointerEvents=1;fontSize=16;" vertex="1" parent="VB9HZBtO5DFLmSZE46sQ-36">
          <mxGeometry width="130" height="130" as="geometry">
            <mxRectangle width="130" height="130" as="alternateBounds" />
          </mxGeometry>
        </mxCell>
        <mxCell id="VB9HZBtO5DFLmSZE46sQ-38" value="" style="shape=partialRectangle;html=1;whiteSpace=wrap;connectable=0;strokeColor=inherit;overflow=hidden;fillColor=none;top=0;left=0;bottom=0;right=0;pointerEvents=1;fontSize=16;" vertex="1" parent="VB9HZBtO5DFLmSZE46sQ-36">
          <mxGeometry x="130" width="130" height="130" as="geometry">
            <mxRectangle width="130" height="130" as="alternateBounds" />
          </mxGeometry>
        </mxCell>
        <mxCell id="VB9HZBtO5DFLmSZE46sQ-39" value="" style="shape=partialRectangle;html=1;whiteSpace=wrap;connectable=0;strokeColor=inherit;overflow=hidden;fillColor=none;top=0;left=0;bottom=0;right=0;pointerEvents=1;fontSize=16;" vertex="1" parent="VB9HZBtO5DFLmSZE46sQ-36">
          <mxGeometry x="260" width="130" height="130" as="geometry">
            <mxRectangle width="130" height="130" as="alternateBounds" />
          </mxGeometry>
        </mxCell>
        <mxCell id="VB9HZBtO5DFLmSZE46sQ-40" value="" style="shape=table;startSize=0;container=1;collapsible=0;childLayout=tableLayout;fontSize=16;fillColor=none;" vertex="1" parent="1">
          <mxGeometry x="1010" y="1740" width="390" height="390" as="geometry" />
        </mxCell>
        <mxCell id="VB9HZBtO5DFLmSZE46sQ-41" value="" style="shape=tableRow;horizontal=0;startSize=0;swimlaneHead=0;swimlaneBody=0;strokeColor=inherit;top=0;left=0;bottom=0;right=0;collapsible=0;dropTarget=0;fillColor=none;points=[[0,0.5],[1,0.5]];portConstraint=eastwest;fontSize=16;" vertex="1" parent="VB9HZBtO5DFLmSZE46sQ-40">
          <mxGeometry width="390" height="130" as="geometry" />
        </mxCell>
        <mxCell id="VB9HZBtO5DFLmSZE46sQ-42" value="" style="shape=partialRectangle;html=1;whiteSpace=wrap;connectable=0;strokeColor=inherit;overflow=hidden;fillColor=none;top=0;left=0;bottom=0;right=0;pointerEvents=1;fontSize=16;" vertex="1" parent="VB9HZBtO5DFLmSZE46sQ-41">
          <mxGeometry width="130" height="130" as="geometry">
            <mxRectangle width="130" height="130" as="alternateBounds" />
          </mxGeometry>
        </mxCell>
        <mxCell id="VB9HZBtO5DFLmSZE46sQ-43" value="" style="shape=partialRectangle;html=1;whiteSpace=wrap;connectable=0;strokeColor=inherit;overflow=hidden;fillColor=none;top=0;left=0;bottom=0;right=0;pointerEvents=1;fontSize=16;" vertex="1" parent="VB9HZBtO5DFLmSZE46sQ-41">
          <mxGeometry x="130" width="130" height="130" as="geometry">
            <mxRectangle width="130" height="130" as="alternateBounds" />
          </mxGeometry>
        </mxCell>
        <mxCell id="VB9HZBtO5DFLmSZE46sQ-44" value="" style="shape=partialRectangle;html=1;whiteSpace=wrap;connectable=0;strokeColor=inherit;overflow=hidden;fillColor=none;top=0;left=0;bottom=0;right=0;pointerEvents=1;fontSize=16;" vertex="1" parent="VB9HZBtO5DFLmSZE46sQ-41">
          <mxGeometry x="260" width="130" height="130" as="geometry">
            <mxRectangle width="130" height="130" as="alternateBounds" />
          </mxGeometry>
        </mxCell>
        <mxCell id="VB9HZBtO5DFLmSZE46sQ-45" value="" style="shape=tableRow;horizontal=0;startSize=0;swimlaneHead=0;swimlaneBody=0;strokeColor=inherit;top=0;left=0;bottom=0;right=0;collapsible=0;dropTarget=0;fillColor=none;points=[[0,0.5],[1,0.5]];portConstraint=eastwest;fontSize=16;" vertex="1" parent="VB9HZBtO5DFLmSZE46sQ-40">
          <mxGeometry y="130" width="390" height="130" as="geometry" />
        </mxCell>
        <mxCell id="VB9HZBtO5DFLmSZE46sQ-46" value="" style="shape=partialRectangle;html=1;whiteSpace=wrap;connectable=0;strokeColor=inherit;overflow=hidden;fillColor=none;top=0;left=0;bottom=0;right=0;pointerEvents=1;fontSize=16;" vertex="1" parent="VB9HZBtO5DFLmSZE46sQ-45">
          <mxGeometry width="130" height="130" as="geometry">
            <mxRectangle width="130" height="130" as="alternateBounds" />
          </mxGeometry>
        </mxCell>
        <mxCell id="VB9HZBtO5DFLmSZE46sQ-47" value="" style="shape=partialRectangle;html=1;whiteSpace=wrap;connectable=0;strokeColor=inherit;overflow=hidden;fillColor=none;top=0;left=0;bottom=0;right=0;pointerEvents=1;fontSize=16;" vertex="1" parent="VB9HZBtO5DFLmSZE46sQ-45">
          <mxGeometry x="130" width="130" height="130" as="geometry">
            <mxRectangle width="130" height="130" as="alternateBounds" />
          </mxGeometry>
        </mxCell>
        <mxCell id="VB9HZBtO5DFLmSZE46sQ-48" value="" style="shape=partialRectangle;html=1;whiteSpace=wrap;connectable=0;strokeColor=inherit;overflow=hidden;fillColor=none;top=0;left=0;bottom=0;right=0;pointerEvents=1;fontSize=16;" vertex="1" parent="VB9HZBtO5DFLmSZE46sQ-45">
          <mxGeometry x="260" width="130" height="130" as="geometry">
            <mxRectangle width="130" height="130" as="alternateBounds" />
          </mxGeometry>
        </mxCell>
        <mxCell id="VB9HZBtO5DFLmSZE46sQ-49" value="" style="shape=tableRow;horizontal=0;startSize=0;swimlaneHead=0;swimlaneBody=0;strokeColor=inherit;top=0;left=0;bottom=0;right=0;collapsible=0;dropTarget=0;fillColor=none;points=[[0,0.5],[1,0.5]];portConstraint=eastwest;fontSize=16;" vertex="1" parent="VB9HZBtO5DFLmSZE46sQ-40">
          <mxGeometry y="260" width="390" height="130" as="geometry" />
        </mxCell>
        <mxCell id="VB9HZBtO5DFLmSZE46sQ-50" value="" style="shape=partialRectangle;html=1;whiteSpace=wrap;connectable=0;strokeColor=inherit;overflow=hidden;fillColor=none;top=0;left=0;bottom=0;right=0;pointerEvents=1;fontSize=16;" vertex="1" parent="VB9HZBtO5DFLmSZE46sQ-49">
          <mxGeometry width="130" height="130" as="geometry">
            <mxRectangle width="130" height="130" as="alternateBounds" />
          </mxGeometry>
        </mxCell>
        <mxCell id="VB9HZBtO5DFLmSZE46sQ-51" value="" style="shape=partialRectangle;html=1;whiteSpace=wrap;connectable=0;strokeColor=inherit;overflow=hidden;fillColor=none;top=0;left=0;bottom=0;right=0;pointerEvents=1;fontSize=16;" vertex="1" parent="VB9HZBtO5DFLmSZE46sQ-49">
          <mxGeometry x="130" width="130" height="130" as="geometry">
            <mxRectangle width="130" height="130" as="alternateBounds" />
          </mxGeometry>
        </mxCell>
        <mxCell id="VB9HZBtO5DFLmSZE46sQ-52" value="" style="shape=partialRectangle;html=1;whiteSpace=wrap;connectable=0;strokeColor=inherit;overflow=hidden;fillColor=none;top=0;left=0;bottom=0;right=0;pointerEvents=1;fontSize=16;" vertex="1" parent="VB9HZBtO5DFLmSZE46sQ-49">
          <mxGeometry x="260" width="130" height="130" as="geometry">
            <mxRectangle width="130" height="130" as="alternateBounds" />
          </mxGeometry>
        </mxCell>
        <mxCell id="VB9HZBtO5DFLmSZE46sQ-54" value="" style="whiteSpace=wrap;html=1;aspect=fixed;strokeColor=#d79b00;strokeWidth=3;fillColor=#ffe6cc;" vertex="1" parent="1">
          <mxGeometry x="980" y="1020" width="390" height="390" as="geometry" />
        </mxCell>
        <mxCell id="VB9HZBtO5DFLmSZE46sQ-53" value="" style="whiteSpace=wrap;html=1;aspect=fixed;strokeColor=#82b366;strokeWidth=3;fillColor=#d5e8d4;fillStyle=auto;" vertex="1" parent="1">
          <mxGeometry x="360" y="1350" width="390" height="390" as="geometry" />
        </mxCell>
      </root>
    </mxGraphModel>
  </diagram>
</mxfile>
